# xmcd
#
# Track frame offsets: 
#        150
#        11795
#        26532
#        45214
#        60287
#        74679
#        87054
#        96845
#        108586
#        122844
#        133916
#        145835
#        160001
#        172969
#        185327
#
# Disc length: 2702 seconds
#
# Revision: 7
# Processed by: cddbd v1.5.2PL0 Copyright (c) Steve Scherf et al.
# Submitted via: ExactAudioCopy v0.99pb5
#
DISCID=c30a8c0f
DTITLE=Various Artist - Classic Country - TL 626-36 - Road Songs - CD 1
DYEAR=2003
DGENRE=Country
TTITLE0=Willie Nelson - On the road again
TTITLE1=Eddie Rabbitt - Drivin' my life away
TTITLE2=Alabama - Roll on (eighteen wheeler)
TTITLE3=Jo Dee Messina - Bye-bye
TTITLE4=Ricky Skaggs - Highway 40 blues
TTITLE5=Glen Campbell - By the time I get to Phoenix
TTITLE6=Johnny Rodriguez - Riding my thumb to Mexico
TTITLE7=Joe Stampley - Roll on big mama
TTITLE8=Suzy Bogguss - Drive south
TTITLE9=Del Reeves - Looking at the world through a windshield
TTITLE10=Stonewall Jackson - Me and you and a dog named Boo
TTITLE11=David Allan Coe - The ride
TTITLE12=Asleep At The Wheel - (Get your kicks on) Route 66
TTITLE13=Bobby Bare - 500 miles away from home
TTITLE14=C.W. McCall - Convoy
EXTD=Classic Country Road Songs CD1 YEAR: 2000
EXTT0=
EXTT1=
EXTT2=
EXTT3=
EXTT4=
EXTT5=
EXTT6=
EXTT7=
EXTT8=
EXTT9=
EXTT10=
EXTT11=
EXTT12=
EXTT13=
EXTT14=
PLAYORDER=
